<!--?xml version="1.0" standalone="no"?-->
              <svg id="sw-js-blob-svg" viewBox="0 0 100 100" xmlns="http://www.w3.org/2000/svg" version="1.1">
                    <defs> 
                        <linearGradient id="sw-gradient" x1="0" x2="1" y1="1" y2="0">
                            <stop id="stop1" stop-color="rgba(41.12, 255, 240.51, 1)" offset="0%"></stop>
                            <stop id="stop2" stop-color="rgba(0, 255, 30.413, 1)" offset="100%"></stop>
                        </linearGradient>
                    </defs>
                <path fill="url(#sw-gradient)" d="M22.1,-37.2C28.4,-34.6,33.2,-28.3,36.6,-21.5C40,-14.6,41.9,-7.3,42.6,0.4C43.2,8,42.5,16.1,39.3,23.2C36.1,30.4,30.4,36.6,23.4,39.9C16.5,43.3,8.2,43.9,0,43.8C-8.2,43.8,-16.4,43.1,-22.9,39.5C-29.5,35.9,-34.4,29.3,-38.6,22.2C-42.8,15.1,-46.2,7.6,-46.2,0C-46.1,-7.5,-42.6,-15,-38,-21.5C-33.5,-28,-27.9,-33.4,-21.4,-35.9C-14.9,-38.5,-7.5,-38.2,0.2,-38.5C7.9,-38.8,15.7,-39.9,22.1,-37.2Z" width="100%" height="100%" transform="translate(50 50)" stroke-width="0" style="transition: all 0.3s ease 0s;" stroke="url(#sw-gradient)"></path>
              </svg>